<?xml version="1.0" encoding="utf-8"?>
<!-- Svg Vector Icons : http://www.onlinewebfonts.com/icon -->
<!DOCTYPE svg PUBLIC "-//W3C//DTD SVG 1.1//EN" "http://www.w3.org/Graphics/SVG/1.1/DTD/svg11.dtd">
<svg version="1.1" xmlns="http://www.w3.org/2000/svg" xmlns:xlink="http://www.w3.org/1999/xlink" x="0px" y="0px"
    width="369" height="130" viewBox="0 0 369 130" xml:space="preserve">
    <g id="SvgjsG7365" featurekey="symbolFeature-0"
        transform="matrix(1.1883395414363604,0,0,1.1883395414363604,-15.257902508165445,6.060842559887185)" fill="#355c7d">
        <path xmlns="http://www.w3.org/2000/svg" fill-rule="evenodd" clip-rule="evenodd"
            d="M72.28,22.624l0.45,1h-1.1c-0.867-0.333-1.35-0.95-1.45-1.85l0.45-0.3  C71.164,21.407,71.713,21.79,72.28,22.624z M78.13,20.673c-0.367,1.534-1.05,3.15-2.05,4.85c-0.533,0.9-1.483,2.333-2.85,4.3  c-0.333,0.4-0.867,1.017-1.6,1.85c-0.633,0.767-1.083,1.583-1.35,2.45c0.566-0.233,1.3-0.35,2.2-0.35c0.934,0,1.567-0.033,1.9-0.1  c1.167-0.267,2.233-0.15,3.2,0.35c0.767,0.4,1.55,1.117,2.35,2.15c0.933,1.167,2,2.667,3.2,4.5c1.833,2.767,2.833,4.3,3,4.6  c0.6,0.833,0.933,2.233,1,4.2c0.1,3.767-0.05,8.816-0.45,15.15c-0.1,1.367-0.15,3.1-0.15,5.2c0,3.033,0,4.783,0,5.25  c0,6.167,0.066,10.283,0.2,12.35c0.067,1.667-0.367,2.95-1.3,3.85c-0.9,0.9-2.217,1.35-3.95,1.35c-2.066,0-3.983,0.133-5.75,0.4  c-1.367,0.233-3.117,0.333-5.25,0.3c-2.867-0.067-4.6-0.067-5.2,0c-5.1,0.333-13.733,0.533-25.9,0.6c-3.067,0-7.633,0.333-13.7,1  c-2.633,0.2-5.267,0.017-7.9-0.55c-0.9-0.133-1.6-0.467-2.1-1c-0.367-0.433-0.667-1.083-0.9-1.95c-0.3-1.167-0.467-2.55-0.5-4.15  c-0.067-0.933-0.067-2.3,0-4.1c-0.067-1.066-0.017-2.7,0.15-4.9c0.033-1.933-0.133-3.583-0.5-4.95c-0.167-0.434-0.167-1.067,0-1.9  c0.233-1.367,0.35-2.066,0.35-2.1c0.133-1.434,0.1-3.133-0.1-5.1c-0.1-1.133-0.283-2.833-0.55-5.1  c-0.067-0.567-0.15-1.417-0.25-2.55c-0.067-1.034-0.184-1.9-0.35-2.6c-0.567-2.2,0.133-4.35,2.1-6.45  c5.5-6.367,9.75-11.05,12.75-14.05c0.667-0.667,1.45-1,2.35-1c1.967,0.033,4.9,0.017,8.8-0.05c0.533,0.034,0.967,0.05,1.3,0.05  c0.5-0.033,0.95-0.2,1.35-0.5c-0.967-0.9-0.9-1.983,0.2-3.25c1.9-2.434,3.966-5.5,6.2-9.2c2.467-4.3,4.317-7.5,5.55-9.6  c0.7-1.2,1.066-1.833,1.1-1.9c0.4-0.767,0.534-1.5,0.4-2.2c-0.067-0.267-0.034-0.467,0.1-0.6c0.133-0.2,0.35-0.267,0.65-0.2  c0.533,0.133,0.8,0.483,0.8,1.05c0,0.6-0.283,1.433-0.85,2.5l-3.4,6.05c-3.067,5.533-5.75,9.9-8.05,13.1  c-0.534,0.833-0.8,1.517-0.8,2.05l3.45-3.2c-0.2,0.733-0.517,1.367-0.95,1.9c-0.267,0.333-0.633,0.733-1.1,1.2  c-0.633,0.767-0.917,1.267-0.85,1.5c0,0.233,0.35,0.684,1.05,1.35l1.1,1.05c0.867-0.567,1.867-1.383,3-2.45  c1.8-1.633,2.833-2.567,3.1-2.8c-0.2,0.9-0.583,1.633-1.15,2.2l-2.3,2c-0.833,0.8-1.25,1.417-1.25,1.85  c0.033,0.4,0.533,0.95,1.5,1.65c0.633,0.5,1.35,0.4,2.15-0.3l1.85-1.6c0.367-0.433,0.667-0.733,0.9-0.9  c0.333-0.4,0.75-0.617,1.25-0.65c-0.3,0.767-0.917,1.566-1.85,2.4c-1.1,1-1.767,1.683-2,2.05c0.9,0.934,1.534,1.417,1.9,1.45  c0.3,0.066,0.883-0.283,1.75-1.05l2.7-2.45c-0.033,0.767-0.283,1.383-0.75,1.85c-0.3,0.267-0.717,0.6-1.25,1  c-0.566,0.533-0.867,0.833-0.9,0.9c-0.2,0.4-0.067,0.816,0.4,1.25c0.467,0.433,0.883,0.533,1.25,0.3c0.4-0.367,0.717-0.65,0.95-0.85  c0.533-0.667,0.95-1.167,1.25-1.5c0.533-0.667,1.2-1.1,2-1.3l-4.15,5.6c1.3,0.133,2.45-0.25,3.45-1.15  c1.067-1.133,1.9-1.967,2.5-2.5c0.133,0.6,0,1.183-0.4,1.75c-0.6,0.8-0.917,1.283-0.95,1.45c0.434,0.167,0.75,0.25,0.95,0.25  c0.3,0,0.55-0.183,0.75-0.55c1.067-1.767,2.483-3.8,4.25-6.1c2.033-2.567,3.567-4.5,4.6-5.8c1.533-2,2.95-4.333,4.25-7  c0.3-0.633,0.417-1.133,0.35-1.5c-0.1-0.467-0.417-0.9-0.95-1.3c-1.8-1.4-4.433-3.517-7.9-6.35c-3.167-2.466-5.95-4.4-8.35-5.8  l-0.75-0.4c-0.3-0.167-0.517-0.383-0.65-0.65c-0.1-0.267-0.1-0.517,0-0.75c0.133-0.3,0.383-0.467,0.75-0.5  c0.3-0.034,0.617,0.033,0.95,0.2c3.1,2,5.167,3.367,6.2,4.1c0.867,0.667,2.8,2.183,5.8,4.55c2.4,1.9,4.417,3.35,6.05,4.35  C78.197,18.957,78.397,19.673,78.13,20.673z M69.13,18.773c0.767,0.434,1.033,0.85,0.8,1.25c-0.333,0.5-0.867,0.434-1.6-0.2  c-2.7-2.067-4.617-3.833-5.75-5.3c0.567-0.167,1.067-0.133,1.5,0.1c0.1,0.067,0.383,0.333,0.85,0.8  C66.297,17.057,67.697,18.173,69.13,18.773z M68.33,36.273l-4.4,5.6h5.2c0.5-0.067,0.883-0.1,1.15-0.1  c0.367,0.033,0.583,0.283,0.65,0.75c0.033,0.5-0.15,0.833-0.55,1c-0.2,0.067-0.617,0.117-1.25,0.15h-3.05  c-1.533-0.066-3.816-0.05-6.85,0.05c-3.066,0.133-5.35,0.133-6.85,0c-3.4-0.233-8.534-0.267-15.4-0.1c-0.533,0-0.867-0.017-1-0.05  c-0.333-0.1-0.55-0.35-0.65-0.75c0.7-0.6,1.667-0.85,2.9-0.75c1.8,0.066,2.817,0.083,3.05,0.05c0.8-0.167,1.9-0.233,3.3-0.2  c1.6,0.1,2.7,0.1,3.3,0c0.233-0.033,1.25,0.067,3.05,0.3c1.333,0.2,2.433,0.017,3.3-0.55c-0.033-0.033-0.55-0.433-1.55-1.2  c-0.567-0.467-1.067-0.783-1.5-0.95c-1.033-0.4-2.067-1.05-3.1-1.95c-0.3-0.267-1.183-1.117-2.65-2.55  c-1.233-1.133-2.517-1.617-3.85-1.45c-2.267,0.167-5.633,0.3-10.1,0.4c-1.267,0-2.483,0.533-3.65,1.6  c-1.233,1.233-2.816,2.95-4.75,5.15c-2.267,2.566-3.833,4.316-4.7,5.25c-1.333,1.333-2.184,2.583-2.55,3.75c1.6-0.4,3.4-0.7,5.4-0.9  c2.3-0.133,4-0.267,5.1-0.4c7.033-0.667,13.45-1,19.25-1c4.9,0.133,8.567,0.15,11,0.05c4.167-0.167,10.417-0.167,18.75,0l1.65,0.05  c0.5,0.067,0.733,0.3,0.7,0.7c0,0.2-0.067,0.35-0.2,0.45c-0.167,0.167-0.35,0.25-0.55,0.25c-1.233,0.067-2.133,0.034-2.7-0.1  c-0.667-0.133-1.683-0.2-3.05-0.2c-3.333,0-8.333-0.017-15-0.05c-5.933,0-10.95,0.033-15.05,0.1c-3.367,0.1-7.4,0.35-12.1,0.75  c-0.367,0.034-2.3,0.267-5.8,0.7c-2.367,0.267-4.316,0.367-5.85,0.3c-1.3-0.066-2.117,0.067-2.45,0.4  c-0.3,0.267-0.467,1.066-0.5,2.4c-0.033,0.3-0.017,0.767,0.05,1.4c0.434,2.933,0.75,5.133,0.95,6.6c0.333,2.633,0.367,4.867,0.1,6.7  c-0.067,0.534,0.083,0.934,0.45,1.2c0.067,0.1,0.517,0.3,1.35,0.6c-1.033,0.7-1.583,1.583-1.65,2.65c-0.033,0.267,0.133,1.3,0.5,3.1  l0.85-0.65c0.033-0.034,0.183-0.3,0.45-0.8c0.167-0.333,0.417-0.383,0.75-0.15c0.3,0.233,0.35,0.5,0.15,0.8  c-0.133,0.167-0.333,0.417-0.6,0.75c-0.1,0.133-0.283,0.35-0.55,0.65c-0.867,0.8-1.333,1.783-1.4,2.95c0,0.633,0.15,1.783,0.45,3.45  c0.433-0.367,1.05-1,1.85-1.9c0.667-0.767,1.216-1.284,1.65-1.55c0.533-0.333,0.9-0.717,1.1-1.15c0.133-0.367,0.183-0.867,0.15-1.5  c-0.167-4.667,0.316-9.2,1.45-13.6c1.067-4.233,3.333-6.4,6.8-6.5c4.233-0.4,7.433-0.617,9.6-0.65c7.466,0,16.65-0.3,27.55-0.9  c0.067,0,3.183-0.067,9.35-0.2h0.65c0.233,0.067,0.367,0.25,0.4,0.55c0,0.033,0.25,1.367,0.75,4c0.3,1.566,0.333,2.917,0.1,4.05  c-0.1,0.533-0.117,1.333-0.05,2.4c0.167,3.233,0.283,5.65,0.35,7.25c0.1,2.867,0.067,5.3-0.1,7.3c-0.2,2.2-0.983,3.883-2.35,5.05  c-1.267,1.133-2.867,1.65-4.8,1.55c-2.533-0.066-5.566-0.05-9.1,0.05l-18.45,0.5c-1.367,0-2.283,0.083-2.75,0.25  c-0.9,0.333-1.483,1.066-1.75,2.2c-0.067,0.3-0.25,0.583-0.55,0.85c-0.2,0.167-0.5,0.4-0.9,0.7c-0.333,0.267-0.533,0.467-0.6,0.6  c-0.167,0.233-0.167,0.5,0,0.8c2.333,0.233,3.816,0.233,4.45,0c0.6-0.233,1.684-1.133,3.25-2.7c0.3-0.466,0.55-0.816,0.75-1.05  c0.333-0.4,0.783-0.55,1.35-0.45c-0.167,0.633-0.633,1.317-1.4,2.05c-0.833,0.8-1.333,1.433-1.5,1.9  c0.267,0.167,0.55,0.25,0.85,0.25c0.367,0,0.633,0,0.8,0c1.733,0.3,3.267-0.3,4.6-1.8c0.333-0.367,0.783-0.784,1.35-1.25  c0.633-0.467,1.117-0.833,1.45-1.1c-0.1,0.633-0.483,1.283-1.15,1.95c-0.867,0.8-1.383,1.4-1.55,1.8c0.066,0,0.8,0.017,2.2,0.05  c0.833,0.033,1.517,0.017,2.05-0.05c0.833-0.133,1.733-0.684,2.7-1.65c1.233-1.167,2.117-1.883,2.65-2.15  c-0.066,0.733-0.45,1.4-1.15,2c-0.767,0.7-1.217,1.25-1.35,1.65l1.2,0.15c2,0.333,3.583-0.267,4.75-1.8  c0.5-0.667,0.817-1.05,0.95-1.15c0.433-0.433,0.933-0.65,1.5-0.65c-0.067,0.6-0.45,1.183-1.15,1.75  c-0.733,0.633-1.15,1.183-1.25,1.65c1.667,0.033,2.75-0.033,3.25-0.2c0.467-0.2,1.233-0.817,2.3-1.85  c0.333-0.4,0.583-0.667,0.75-0.8c0.367-0.3,0.767-0.383,1.2-0.25c-0.1,0.233-0.5,0.7-1.2,1.4c-0.5,0.5-0.7,1.017-0.6,1.55  c1.6,0.3,2.933,0.317,4,0.05c1.267-0.333,2.317-1.117,3.15-2.35l0.25-0.15l0.45,0.15c0.2,0.3,0.15,0.633-0.15,1  c-0.3,0.4-0.417,0.75-0.35,1.05c1.4-0.033,2.467-0.067,3.2-0.1c1.267-0.066,2.35-0.217,3.25-0.45c1.1-0.333,1.8-0.684,2.1-1.05  c0.3-0.4,0.45-1.133,0.45-2.2v-15.7c0-0.3,0-1.45,0-3.45c0-1.367,0.05-2.517,0.15-3.45c0.3-2.9,0.45-7.833,0.45-14.8  c-0.034-0.933-0.167-1.5-0.4-1.7c-0.2-0.2-0.8-0.267-1.8-0.2c-0.367,0.033-0.933,0.067-1.7,0.1c-0.667,0-1.267-0.083-1.8-0.25  c0.467-0.5,1.233-0.817,2.3-0.95c1.067-0.133,1.8-0.4,2.2-0.8c-1.067-2.567-2.983-5.7-5.75-9.4c-0.767-1-2.317-1.667-4.65-2  c-2.267-0.333-3.983-0.184-5.15,0.45C68.747,35.74,68.563,35.94,68.33,36.273z M75.28,56.023c-0.233-0.167-0.617-0.233-1.15-0.2  c-4.534,0.1-6.817,0.15-6.85,0.15c-5.167,0.167-12.934,0.433-23.3,0.8c-2.5,0.1-7.15,0.434-13.95,1c-2.9,0.2-4.8,1.9-5.7,5.1  c-1.767,6.067-2,12.417-0.7,19.05c0.267,1.534,0.683,2.567,1.25,3.1c0.6,0.5,1.7,0.817,3.3,0.95c1.533,0.2,3.55,0.25,6.05,0.15  c3.133-0.133,5.133-0.183,6-0.15c2.667,0.1,6.3,0.05,10.9-0.15c5.5-0.233,9.367-0.35,11.6-0.35c0.534-0.033,2.017-0.05,4.45-0.05  c2.1,0.034,3.833-0.066,5.2-0.3c1-0.133,1.833-0.55,2.5-1.25c0.566-0.6,0.917-1.333,1.05-2.2c0.333-2.367,0.533-3.9,0.6-4.6  c0.2-1.733,0.2-3.284,0-4.65c-0.5-4.4-0.633-7.867-0.4-10.4c0.066-1.1-0.067-2.733-0.4-4.9C75.697,56.59,75.547,56.224,75.28,56.023  z M52.23,74.023c0.133,0.033,0.534-0.083,1.2-0.35c0.5-0.233,0.783-0.1,0.85,0.4c0.167,0.6-0.017,0.933-0.55,1  c-0.333,0.033-0.8,0.066-1.4,0.1l-0.3,0.15c-1.8,0.3-2.883-0.117-3.25-1.25c-0.2-0.6-0.133-1.167,0.2-1.7  c0.2-0.267,0.633-0.683,1.3-1.25c1.033-0.967,2.267-0.883,3.7,0.25c-0.233,0.333-0.55,0.45-0.95,0.35c-0.633-0.033-1-0.033-1.1,0  c-1.067,0.4-1.533,0.983-1.4,1.75c0.1,0.3,0.333,0.467,0.7,0.5C51.697,73.974,52.03,73.99,52.23,74.023z M63.48,70.773  c0.333-0.333,1.184-0.667,2.55-1l1.3,0.3c0.733,0.3,1,0.7,0.8,1.2c-0.133,0.434-0.567,0.483-1.3,0.15c-1.4-0.4-2.233,0-2.5,1.2  c-0.1,0.6,0.033,1.083,0.4,1.45c0.4,0.4,0.9,0.4,1.5,0l0.9-0.65c0.333-0.367,0.633-0.4,0.9-0.1c0.233,0.233,0.267,0.566,0.1,1  c-0.167,0.433-0.617,0.833-1.35,1.2c-0.8,0.4-1.434,0.533-1.9,0.4c-1.133-0.267-1.833-0.917-2.1-1.95  C62.414,72.607,62.647,71.54,63.48,70.773z M48.63,24.874c0.267-0.3,0.95-0.783,2.05-1.45c-0.167,0.633-0.55,1.217-1.15,1.75  c-0.367,0.3-0.917,0.75-1.65,1.35C48.147,25.69,48.397,25.14,48.63,24.874z M34.48,68.974c1.233-0.667,2.233-0.767,3-0.3  c0.4,0.3,0.534,0.617,0.4,0.95c-0.034,0.267-0.233,0.4-0.6,0.4h-1.35c-1.133,0.133-1.65,0.65-1.55,1.55  c0.033,0.966,0.65,1.533,1.85,1.7c0.333,0.1,0.8-0.017,1.4-0.35c0.6-0.267,1.05-0.4,1.35-0.4l0.1,0.35  c-0.8,1.633-2.25,2.133-4.35,1.5c-0.7-0.2-1.233-0.6-1.6-1.2c-0.434-0.566-0.6-1.2-0.5-1.9C32.664,70.34,33.28,69.574,34.48,68.974z   M20.68,79.673c-2.733,2.467-4.317,4.35-4.75,5.65c-0.433,1.267-0.083,3.183,1.05,5.75c0.633-0.367,1.434-1.117,2.4-2.25  c0.966-1.133,1.833-1.867,2.6-2.2c0.067,0.433-0.017,0.783-0.25,1.05c-0.1,0.133-0.316,0.333-0.65,0.6l-3.35,3.65  c-0.333,0.3-0.45,0.6-0.35,0.9c0.066,0.333,0.3,0.517,0.7,0.55c1.033,0.167,1.8,0.25,2.3,0.25c0.9,0,1.6-0.333,2.1-1  c0.5-0.767,1.233-1.533,2.2-2.3c1.133-0.8,1.967-1.434,2.5-1.9c-0.933,1.8-2.417,3.25-4.45,4.35c1.167,0.633,2.434,0.883,3.8,0.75  c1.333-0.133,2.45-0.65,3.35-1.55l3.2-3.05c0.3-0.3,0.467-0.466,0.5-0.5c0.267-0.167,0.533-0.1,0.8,0.2  c-0.3,0.467-0.95,1.183-1.95,2.15c-0.867,0.833-1.483,1.583-1.85,2.25c2.667,0.3,4.7-0.517,6.1-2.45c0.633-0.567,1.1-1,1.4-1.3  c0.5-0.533,0.633-1.033,0.4-1.5c-0.2-0.467-0.667-0.7-1.4-0.7c-0.4,0-1.017,0.083-1.85,0.25c-3,0.3-5.733,0.283-8.2-0.05  c-1.667-0.267-2.917-0.783-3.75-1.55c-0.867-0.8-1.434-2.017-1.7-3.65c-0.133-0.733-0.2-1.15-0.2-1.25  C21.247,80.324,21.014,79.94,20.68,79.673z">
        </path>
    </g>
    <g id="SvgjsG7366" featurekey="nameFeature-0"
        transform="matrix(1.4949854491989714,0,0,1.4949854491989714,106.20601632037786,-13.873463143633044)"
        fill="#355c7d">
        <path
            d="M31.2 10.16 l-12.52 29.84 l-5.16 0 l-12.32 -29.84 l4.72 0 l10.2 24.96 l10.28 -24.96 l4.8 0 z M62.599999999999994 24.880000000000003 q0 -3.2 -1.64 -5.8 q-1.56 -2.52 -4.26 -3.96 t-5.86 -1.44 q-3.28 0 -5.98 1.48 t-4.22 4.04 q-1.56 2.68 -1.56 5.96 q0 3.12 1.68 5.76 q1.6 2.48 4.3 3.94 t5.84 1.46 t5.84 -1.52 t4.26 -4.08 q1.6 -2.68 1.6 -5.84 z M66.92 25.119999999999997 q0 4.32 -2.24 7.96 q-2.16 3.48 -5.86 5.54 t-7.98 2.06 q-4.44 0 -8.16 -2.16 q-3.64 -2.08 -5.72 -5.72 q-2.16 -3.72 -2.16 -8.16 q0 -4.28 2.28 -7.88 q2.16 -3.44 5.86 -5.46 t7.94 -2.02 q4.36 0 8.08 2.12 q3.64 2.08 5.76 5.64 q2.2 3.72 2.2 8.08 z M95.91999999999999 14.559999999999999 l-10.52 0 l0 25.44 l-4.24 0 l0 -25.44 l-10.64 0 l0 -4.4 l25.4 0 l0 4.4 z M105.79999999999998 40 l-4.28 0 l0 -29.84 l4.28 0 l0 29.84 z M115.47999999999999 14.36 l-3.48 -4.2 l5.64 0 l19.16 22.8 l0 -22.8 l4.4 0 l0 29.84 l-4.32 0 l-17.12 -20.52 l0 20.52 l-4.28 0 l0 -25.64 z M175.56 14 l-2.8 3.28 q-1.64 -1.68 -3.92 -2.64 t-4.8 -0.96 q-3.28 0 -5.98 1.48 t-4.22 4.04 q-1.56 2.68 -1.56 5.96 q0 3.12 1.68 5.76 q1.6 2.48 4.3 3.94 t5.82 1.46 q2.2 0 4.22 -0.76 t3.62 -2.12 l0 -5.44 l-3.84 0 l-1.88 -4.32 l10.04 0 l0 11.6 q-2.28 2.56 -5.46 3.98 t-6.74 1.42 q-4.44 0 -8.16 -2.16 q-3.64 -2.08 -5.72 -5.72 q-2.16 -3.72 -2.16 -8.16 q0 -4.28 2.28 -7.88 q2.16 -3.44 5.86 -5.46 t7.94 -2.02 q3.32 0 6.32 1.28 q2.92 1.2 5.16 3.44 z">
        </path>
    </g>
    <g id="SvgjsG7367" featurekey="nameFeature-1"
        transform="matrix(1.4460777701253322,0,0,1.4460777701253322,105.10784377020572,43.5804014375558)"
        fill="#355c7d">
        <path
            d="M27.6 30.92 q0 2.92 -1.76 5.2 q-1.72 2.16 -4.74 3.36 t-6.82 1.2 q-3.48 0 -6.76 -1.62 t-5.52 -4.5 l3.12 -2.92 q3.88 4.68 9.16 4.68 q2.32 0 4.24 -0.56 q2.12 -0.64 3.28 -1.8 q1.32 -1.28 1.32 -3.04 q0 -2.12 -1.32 -3.2 q-1.12 -0.92 -3.32 -1.2 q-1.28 -0.16 -4.2 -0.16 q-5.36 0 -8.18 -1.96 t-2.82 -5.76 q0 -2.4 1.42 -4.56 t3.9 -3.44 q2.56 -1.36 5.68 -1.36 q3.52 0 6.36 1.08 q3.04 1.16 5.64 3.64 l-2.72 3.2 q-2.44 -1.96 -4.44 -2.74 t-4.84 -0.78 q-1.64 0 -3.06 0.68 t-2.26 1.82 t-0.84 2.42 q0 3.44 6.36 3.44 q5.08 0 8.04 1.04 q2.8 1 4 3.04 q1.08 1.8 1.08 4.8 z M43.88 23.28 q2.68 -2.8 4.84 -6.24 t3.44 -6.88 l5 0 q-2.04 4.76 -4.96 9.12 q-2.64 3.96 -6.16 7.8 l0 12.92 l-4.32 0 l0 -12.92 q-3.52 -3.84 -6.16 -7.8 q-2.92 -4.36 -4.96 -9.12 l5 0 q1.28 3.44 3.44 6.88 t4.84 6.24 z M85.76 30.92 q0 2.92 -1.76 5.2 q-1.72 2.16 -4.74 3.36 t-6.82 1.2 q-3.48 0 -6.76 -1.62 t-5.52 -4.5 l3.12 -2.92 q3.88 4.68 9.16 4.68 q2.32 0 4.24 -0.56 q2.12 -0.64 3.28 -1.8 q1.32 -1.28 1.32 -3.04 q0 -2.12 -1.32 -3.2 q-1.12 -0.92 -3.32 -1.2 q-1.28 -0.16 -4.2 -0.16 q-5.36 0 -8.18 -1.96 t-2.82 -5.76 q0 -2.4 1.42 -4.56 t3.9 -3.44 q2.56 -1.36 5.68 -1.36 q3.52 0 6.36 1.08 q3.04 1.16 5.64 3.64 l-2.72 3.2 q-2.44 -1.96 -4.44 -2.74 t-4.84 -0.78 q-1.64 0 -3.06 0.68 t-2.26 1.82 t-0.84 2.42 q0 3.44 6.36 3.44 q5.08 0 8.04 1.04 q2.8 1 4 3.04 q1.08 1.8 1.08 4.8 z M114.36000000000001 14.559999999999999 l-10.52 0 l0 25.44 l-4.24 0 l0 -25.44 l-10.64 0 l0 -4.4 l25.4 0 l0 4.4 z M124.32000000000001 28.04 l0 7.6 l18.4 0 l0 4.36 l-22.76 0 l0 -29.84 l21 0 l0 4.4 l-16.64 0 l0 9.04 q1.24 -0.72 2.76 -0.96 q1.12 -0.2 2.88 -0.2 l6.52 0 l0 4.44 l-6.52 0 q-1.64 0 -2.88 0.2 q-1.52 0.28 -2.76 0.96 z M175.2 19.48 l-10.2 12.2 l-10.12 -12.2 l0 20.52 l-4.28 0 l0 -25.64 l-3.48 -4.2 l5.64 0 l12.2 14.64 l12.36 -14.64 l5.64 0 l-3.48 4.2 l0 25.64 l-4.28 0 l0 -20.52 z">
        </path>
    </g>
    <g id="SvgjsG7368" featurekey="sloganFeature-0"
        transform="matrix(0.5522785110126055,0,0,0.5522785110126055,106.78498711776412,119.19442625957913)"
        fill="#355c7d">
        <path
            d="M4.36 7.279999999999999 l0 4.56 q0.62 -0.36 1.4 -0.5 q0.58 -0.1 1.44 -0.1 l2.56 0 q1.04 0 1.63 -0.52 t0.59 -1.54 q0 -1.9 -2.22 -1.9 l-5.4 0 z M4.36 14.059999999999999 l0 3.76 l5.62 0 q0.66 0 1.26 -0.24 q0.66 -0.24 1.04 -0.7 q0.44 -0.54 0.44 -1.24 q0 -1.2 -0.94 -1.74 q-0.74 -0.44 -2.02 -0.44 l-2.56 0 q-1.72 0 -2.84 0.6 z M14.88 15.92 q0 1.4 -0.78 2.38 q-0.68 0.86 -1.92 1.3 q-1.1 0.4 -2.42 0.4 l-7.56 0 l0 -14.92 l7.56 0 q1.28 0 2.27 0.48 t1.55 1.38 q0.58 0.94 0.58 2.22 q0 0.98 -0.35 1.75 t-0.99 1.19 q0.86 0.4 1.42 1.32 q0.64 1.06 0.64 2.5 z M25.912 20.32 l-0.04 0 q-2.28 0 -3.56 -1.06 q-1.42 -1.12 -1.42 -3.32 l0 -6.3 l2.06 0 l0 6.3 q0 1.26 0.82 1.8 q0.7 0.5 2.12 0.5 t2.14 -0.5 q0.8 -0.54 0.8 -1.8 l0 -6.3 l2.06 0 l0 6.3 q0 2.2 -1.4 3.32 q-1.3 1.06 -3.58 1.06 z M39.944 20 l-2.04 0 l0 -10.36 l2.04 0 l0 10.36 z M54.796 20 l-7.64 0 l0 -10.36 l2.14 0 l0 8.28 l5.5 0 l0 2.08 z M68.328 11.7 l-3.9 0 l0 8.3 l-2.06 0 l0 -8.3 l-3.76 0 l0 -2.06 l9.72 0 l0 2.06 z M86.53199999999998 12.34 l-0.84 -2.7 l2.34 0 l2.36 7.6 l2.78 -7.6 l2.2 0 l-3.64 10.36 l-2.78 0 l-1.3 -4.1 l-1.06 4.1 l-2.74 0 l-3.58 -10.36 l2.22 0 l2.68 7.6 z M103.12399999999998 20 l-2.04 0 l0 -10.36 l2.04 0 l0 10.36 z M118.45599999999997 11.7 l-3.9 0 l0 8.3 l-2.06 0 l0 -8.3 l-3.76 0 l0 -2.06 l9.72 0 l0 2.06 z M126.10799999999998 15.879999999999999 l0 4.12 l-2.04 0 l0 -10.36 l2.04 0 l0 4.14 q0.54 -0.26 1.22 -0.26 q0.4 0 1.42 0.14 q1.16 0.16 1.7 0.16 q0.76 0 1.3 -0.26 l0 -3.92 l2.04 0 l0 10.36 l-2.04 0 l0 -4.34 q-0.52 0.26 -1.22 0.26 q-0.54 0 -1.6 -0.14 q-1.02 -0.14 -1.52 -0.14 q-0.74 0 -1.3 0.24 z M150.81199999999995 14.02 l0 3.8 l9.2 0 l0 2.18 l-11.38 0 l0 -14.92 l10.5 0 l0 2.2 l-8.32 0 l0 4.52 q0.62 -0.36 1.38 -0.48 q0.56 -0.1 1.44 -0.1 l3.26 0 l0 2.22 l-3.26 0 q-0.82 0 -1.44 0.1 q-0.76 0.14 -1.38 0.48 z M174.24399999999997 11.7 l-3.9 0 l0 8.3 l-2.06 0 l0 -8.3 l-3.76 0 l0 -2.06 l9.72 0 l0 2.06 z M181.89599999999996 15.879999999999999 l0 4.12 l-2.04 0 l0 -10.36 l2.04 0 l0 4.14 q0.54 -0.26 1.22 -0.26 q0.4 0 1.42 0.14 q1.16 0.16 1.7 0.16 q0.76 0 1.3 -0.26 l0 -3.92 l2.04 0 l0 10.36 l-2.04 0 l0 -4.34 q-0.52 0.26 -1.22 0.26 q-0.54 0 -1.6 -0.14 q-1.02 -0.14 -1.52 -0.14 q-0.74 0 -1.3 0.24 z M198.82799999999995 16.28 l0 1.64 l6.5 0 l0 2.08 l-8.54 0 l0 -10.36 l8.16 0 l0 2.06 l-6.12 0 l0 2.52 q0.62 -0.36 1.5 -0.5 q0.68 -0.1 1.74 -0.1 l1.52 0 l0 2.06 l-1.52 0 q-1.38 0 -2 0.12 q-0.54 0.1 -1.24 0.48 z M219.19999999999996 15.780000000000001 l0.64 1.08 q0.34 0.56 0.86 0.78 q0.36 0.14 0.88 0.14 l0.72 0 l0 2.22 l-0.9 0 q-0.66 0 -1.04 -0.08 q-0.56 -0.12 -1.02 -0.44 q-0.5 -0.38 -0.96 -1.12 l-1.6 -2.6 l-0.14 0 q-1.14 0 -1.74 0.14 q-0.48 0.1 -1.16 0.46 l0 3.64 l-2.1 0 l0 -10.36 l6.68 0 q0.94 0 1.68 0.4 t1.16 1.12 t0.42 1.6 q0 1.16 -0.61 1.91 t-1.77 1.11 z M216.63999999999996 13.7 l1.68 0 q0.5 0 0.83 -0.26 t0.33 -0.74 q0 -0.62 -0.48 -0.84 q-0.34 -0.16 -1.04 -0.16 l-4.22 0 l0 2.6 q1.1 -0.6 2.9 -0.6 z M230.75199999999995 16.28 l0 1.64 l6.5 0 l0 2.08 l-8.54 0 l0 -10.36 l8.16 0 l0 2.06 l-6.12 0 l0 2.52 q0.62 -0.36 1.5 -0.5 q0.68 -0.1 1.74 -0.1 l1.52 0 l0 2.06 l-1.52 0 q-1.38 0 -2 0.12 q-0.54 0.1 -1.24 0.48 z M248.38399999999996 20.32 l-0.04 0 q-2.28 0 -3.56 -1.06 q-1.42 -1.12 -1.42 -3.32 l0 -6.3 l2.06 0 l0 6.3 q0 1.26 0.82 1.8 q0.7 0.5 2.12 0.5 t2.14 -0.5 q0.8 -0.54 0.8 -1.8 l0 -6.3 l2.06 0 l0 6.3 q0 2.2 -1.4 3.32 q-1.3 1.06 -3.58 1.06 z M272.95599999999996 9.64 l-1.02 1.66 l0 8.7 l-2.26 0 l0 -6.06 l-3.66 4.88 l-3.66 -4.88 l0 6.06 l-2.26 0 l0 -8.7 l-1.02 -1.66 l2.52 0 l4.42 5.86 l4.42 -5.86 l2.52 0 z">
        </path>
    </g>
</svg>